<svg xmlns="http://www.w3.org/2000/svg" data-name="Layer 1" width="786.81995" height="572.25773" viewBox="0 0 786.81995 572.25773" xmlns:xlink="http://www.w3.org/1999/xlink"><circle cx="458.32136" cy="74.18162" r="26.70075" fill="#f2f2f2"/><path d="M872.03753,661.02307c39.6877-30.22889,58.64352-81.02546,46.77635-129.48234q-.44231-1.806-.9647-3.60132c-9.96332-34.45331-36.61664-61.60749-68.61658-77.37374-32.00028-15.76625-70.54036-19.73333-105.27858-10.04995L689.2065,572.9061l-6.20345-89.34052c-29.70052,14.33449-56.3811,35.22849-72.0972,64.29889-15.71574,29.07012-19.13128,65.77042-5.59233,95.39082C622.34907,683.20824,697.40149,727.97848,757.15991,727.97848A134.14936,134.14936,0,0,0,872.03753,661.02307Z" transform="translate(-206.59003 -163.87113)" fill="#f2f2f2"/><path d="M840.92139,258.53422c-13.64532-24.04932-41.67932-35.77173-68.56437-33.566s-52.01129,17.85831-70.38208,37.63187c-34.37128,37.03869-52.38935,85.58355-60.97268,134.49851-8.58367,48.91496-8.53761,99.07543-16.13994,148.19478-3.52699,22.72669-8.95314,45.63208-21.10629,65.274-11.06607,17.97879-27.76308,32.02418-47.32274,38.34846-31.98529,10.3483-67.20316-.31346-98.21866-13.28607,35.349,25.58312,83.233,28.52456,124.48733,16.765,41.25381-11.75976,76.84315-37.42179,108.46639-66.80462,31.62384-29.38283,59.17747-62.31259,90.52155-91.98681,16.02037-15.17781,33.09075-29.62852,52.68606-40.21015,19.59531-10.58218,42.30126-16.91081,64.81677-12.99607a76.89782,76.89782,0,0,1,54.35486,109.54084Z" transform="translate(-206.59003 -163.87113)" fill="#e6e6e6"/><circle cx="482.36866" cy="277.13081" r="21.75123" fill="#e6e6e6"/><circle cx="597.3069" cy="333.88714" r="21.75123" fill="#3f3d56"/><circle cx="544.83805" cy="146.26468" r="21.75123" fill="#6c63ff"/><circle cx="552.31695" cy="416.79206" r="21.75123" fill="#e6e6e6"/><circle cx="402.36956" cy="340.26468" r="21.75123" fill="#6c63ff"/><polygon points="457.931 426.283 438.088 426.282 430.494 366.369 457.934 366.37 457.931 426.283" fill="#ffb8b8"/><path d="M423.86254,421.76886h34.52549a0,0,0,0,1,0,0v21.57361a0,0,0,0,1,0,0H409.29125a0,0,0,0,1,0,0v-7.0023A14.57129,14.57129,0,0,1,423.86254,421.76886Z" fill="#2f2e41"/><polygon points="570.931 426.283 551.088 426.282 543.494 366.369 570.934 366.37 570.931 426.283" fill="#ffb8b8"/><path d="M536.86254,421.76886h34.52549a0,0,0,0,1,0,0v21.57361a0,0,0,0,1,0,0H522.29125a0,0,0,0,1,0,0v-7.0023A14.57129,14.57129,0,0,1,536.86254,421.76886Z" fill="#2f2e41"/><path d="M683.853,562.05507a11.04847,11.04847,0,0,1-10.08483-6.90235l-36.64068-95.88379a4.052,4.052,0,0,0-7.40869-.05859L580.9657,553.786a11.0291,11.0291,0,0,1-10.17139,6.99658h-.209a11.03192,11.03192,0,0,1-10.10254-15.00147l52.83447-122.11035a11.001,11.001,0,0,1,10.07421-6.6709h.23193a11.0098,11.0098,0,0,1,10.10742,6.81543l51.29688,124.96777a11.02973,11.02973,0,0,1-10.10742,15.00147Z" transform="translate(-206.59003 -163.87113)" fill="#2f2e41"/><circle cx="393.4057" cy="196.19945" r="24.56103" fill="#ffb8b8"/><path d="M559.47327,529.28906a4.50917,4.50917,0,0,1-1.12988-.14356l-69.10059-17.89843a4.49858,4.49858,0,0,1-3.30664-5.21387l30.84228-148.668a29.15833,29.15833,0,0,1,33.32422-22.53711,28.99471,28.99471,0,0,1,23.28614,33.37207L556.21,516.865a4.50392,4.50392,0,0,1-4.42627,12.4043A4.45684,4.45684,0,0,1,559.47327,529.28906Z" transform="translate(-206.59003 -163.87113)" fill="#6c63ff"/><path d="M542.75636,362.46338a10.05576,10.05576,0,0,0,5.50879,14.64332l35.63111,62.91639,18.20712-12.62958-41.32739-57.33095a10.11027,10.11027,0,0,0-18.01963-7.59918Z" transform="translate(-206.59003 -163.87113)" fill="#ffb8b8"/><path d="M604.28341,422.96338a4.50516,4.50516,0,0,1,2.1919-.96l66.40458-7.32715a4.49979,4.49979,0,0,1,4.88946,4.0332l7.32715,66.40458a4.50508,4.50508,0,0,1-4.0332,4.88946l-66.40458,7.32715a4.50508,4.50508,0,0,1-4.88946-4.0332l-7.32715-66.40458A4.50078,4.50078,0,0,1,604.28341,422.96338Z" transform="translate(-206.59003 -163.87113)" fill="#6c63ff"/><path d="M639.99808,360.37075c-7.75391-.62793-14.19336-8.87793-13.59863-17.15235.51855-7.2207,6.72852-13.12793,14.55176-13.65625,7.82324-.50879,14.94434,4.2373,16.5,11.00293,1.90186,8.25391,1.60059,16.92383,1.28906,25.44824-.31055,8.43067-.62207,16.862,1.16309,25.11231a36.01052,36.01052,0,0,0,13.03906,20.26074c6.05176,4.75391,13.58887,7.50586,21.43066,8.75391a141.4901,141.4901,0,0,0,54.7334-4.39356,4.476,4.476,0,0,1,5.41895,3.30957,4.5057,4.5057,0,0,1-3.30957,5.41992,150.20118,150.20118,0,0,1-58.46094,4.53418c-8.95508-1.40234-17.5957-4.53418-24.45312-10.15527-6.85742-5.62207-11.97461-13.6748-14.082-22.62891-2.05566-8.76855-1.72949-17.60449-1.41309-26.44238.31738-8.82715.64551-17.95605-1.55859-26.93848C648.88048,366.34423,645.12364,360.75619,639.99808,360.37075Z" transform="translate(-206.59003 -163.87113)" fill="#2f2e41"/><path d="M661.10589,342.17856a30.61494,30.61494,0,0,1-5.17944-.44825,19.05232,19.05232,0,0,1-14.9834-20.8252c1.27563-14.08218,11.52222-26.94606,25.59429-31.52168A34.46492,34.46492,0,0,1,699.21587,295.344c10.38828,10.48733,21.147,14.01465,31.89441,10.48291,16.84155-5.52149,26.73274-26.06513,21.20556-42.90668a31.65971,31.65971,0,0,0-30.38936-21.62888c-.96349.01337-1.93354.0802-2.88733.19991-15.00653,1.88712-30.0539-4.35494-39.56276-16.3544-9.50913-12.00038-12.47324-28.46225-7.7951-43.28791l.01385-.04387.04242-.01631a27.7598,27.7598,0,0,1,11.21782-2.35785c17.7327,0,32.15833,16.27667,32.15833,36.29071,0,1.84957-.12958,3.6855-.38532,5.45505l-.04242.29387-.29095.06042c-9.72907,2.02353-16.44,10.033-16.44,19.6398,0,10.95673,9.40479,19.87173,20.96967,19.87173a20.10322,20.10322,0,0,0,19.2402-14.12489,35.16264,35.16264,0,0,1,1.57966,10.36693c0,19.80237-16.09876,35.9043-35.89817,35.9043a35.62235,35.62235,0,0,1-14.1759-2.92046c-9.85327-4.28409-16.78659-13.06864-18.41922-23.41925a20.07533,20.07533,0,0,0-19.79712,20.06686c0,11.04431,8.96583,20.02689,19.98584,20.02689,10.50539,0,19.11005-8.38739,19.62321-19.00438l.06921-.10565.09592-.08316a34.43723,34.43723,0,0,1,44.66049,32.94859c0,19.01025-15.46517,34.48685-34.46492,34.48685A34.15752,34.15752,0,0,1,661.10589,342.17856Z" transform="translate(-206.59003 -163.87113)" fill="#2f2e41"/></svg>
